<svg width="400" height="400" viewBox="0 0 400 400" xmlns="http://www.w3.org/2000/svg">
  <rect width="400" height="400" rx="10" ry="10" fill="none" stroke="#352C27" stroke-width="20"/>
  <path d="M 0,210 
           h 20
           l 5,-15 l 5,15
           h 10
           l 10,-150 l 20,280 l 10,-130
           h 10 
           q 15,-15 20,0 
           h 5 
           l 5,-5 l 5,5
           h 20
           l 5,-15 l 5,15
           h 10
           l 10,-150 l 20,280 l 10,-130
           h 10 
           q 15,-15 20,0 
           h 5 
           l 5,-5 l 5,5
           h 20
           l 5,-15 l 5,15
           h 10
           l 10,-150 l 20,280 l 10,-130
           h 10 
           q 15,-15 20,0 
           h 5 
           l 5,-5 l 5,5
           h 25" 
        fill="none" 
        stroke="#352C27" 
        stroke-width="8" 
        stroke-linecap="round" 
        stroke-linejoin="round">
    <animate attributeName="stroke-dasharray" from="0,2100" to="2100,0" dur="3s" repeatCount="indefinite" />
  </path>
</svg>